<svg width="16" height="16" viewBox="0 0 16 16" fill="none" xmlns="http://www.w3.org/2000/svg">
<path d="M13.7163 7.14807H12.502V3.14807C12.502 1.88556 11.4788 0.86235 10.2163 0.86235H5.78774C4.52524 0.86235 3.50202 1.88556 3.50202 3.14807V7.14807H2.28774C1.97167 7.14807 1.71631 7.40342 1.71631 7.71949V14.5766C1.71631 14.8927 1.97167 15.1481 2.28774 15.1481H13.7163C14.0324 15.1481 14.2877 14.8927 14.2877 14.5766V7.71949C14.2877 7.40342 14.0324 7.14807 13.7163 7.14807ZM4.78774 3.14807C4.78774 2.59628 5.23595 2.14806 5.78774 2.14806H10.2163C10.7681 2.14806 11.2163 2.59628 11.2163 3.14807V7.14807H4.78774V3.14807ZM13.002 13.8624H3.00202V8.43378H13.002V13.8624ZM7.50202 11.3802V12.3266C7.50202 12.4052 7.56631 12.4695 7.64488 12.4695H8.35917C8.43774 12.4695 8.50202 12.4052 8.50202 12.3266V11.3802C8.64943 11.2744 8.75945 11.1245 8.81626 10.9522C8.87306 10.7798 8.87372 10.5939 8.81813 10.4212C8.76254 10.2484 8.65358 10.0978 8.50692 9.99091C8.36027 9.88405 8.18349 9.82647 8.00202 9.82647C7.82056 9.82647 7.64378 9.88405 7.49713 9.99091C7.35047 10.0978 7.24151 10.2484 7.18592 10.4212C7.13033 10.5939 7.13099 10.7798 7.18779 10.9522C7.2446 11.1245 7.35462 11.2744 7.50202 11.3802V11.3802Z" fill="#1890FF"/>
</svg>
